<svg width="206" height="30" viewBox="0 0 206 30" fill="none" xmlns="http://www.w3.org/2000/svg">
<path d="M8.82812 29L0.664062 0.71875H8.00781L12.3438 19.4688H12.5781L17.5 0.71875H23.5547L28.5156 19.5078H28.7109L33.0859 0.71875H40.4297L32.2266 29H25.8203L20.6641 11.5781H20.4297L15.2734 29H8.82812ZM50.7031 29.3906C44.0625 29.3906 40 25.25 40 18.4922C40 11.9297 44.1016 7.51562 50.4688 7.51562C56.4062 7.51562 60.7031 11.3047 60.7031 18.3359V20.0156H46.4844V20.1328C46.4844 22.8672 48.1641 24.625 50.8203 24.625C52.6172 24.625 53.9453 23.8438 54.4922 22.5938H60.625C59.8438 26.7344 56.2109 29.3906 50.7031 29.3906ZM46.4844 16.1484H54.5703C54.5312 13.8828 52.8906 12.2812 50.625 12.2812C48.2812 12.2812 46.582 13.9414 46.4844 16.1484ZM64.1406 29V0.71875H70.7031V11.4219H70.8594C71.6797 9.50781 73.4766 7.51562 76.875 7.51562C81.3281 7.51562 85.3516 10.9531 85.3516 18.4141C85.3516 25.6016 81.5625 29.3125 76.8359 29.3125C73.5938 29.3125 71.7188 27.4766 70.8594 25.5625H70.6641V29H64.1406ZM70.5859 18.375C70.5859 21.8906 72.0703 24.1562 74.6094 24.1562C77.1484 24.1562 78.5938 21.8906 78.5938 18.375C78.5938 14.9375 77.1875 12.6719 74.6094 12.6719C72.0312 12.6719 70.5859 14.8594 70.5859 18.375Z" fill="#6167FF"/>
<path d="M125.156 29V7.78906H128.398V11.0312H128.633C129.414 8.88281 131.602 7.4375 134.102 7.4375C134.609 7.4375 135.469 7.47656 135.859 7.51562V10.9141C135.625 10.8359 134.688 10.6797 133.828 10.6797C130.781 10.6797 128.516 12.7891 128.516 15.6406V29H125.156ZM138.086 22.9844C138.086 18.1016 142.383 17.0078 146.055 16.7344C147.402 16.6367 150.84 16.4609 151.797 16.4219V14.7031C151.797 12.0078 150.195 10.4453 146.992 10.4453C144.297 10.4453 142.695 11.6953 142.227 13.2969H138.711C139.141 9.89844 142.461 7.51562 147.148 7.51562C149.922 7.51562 155.117 8.33594 155.117 15.0156V29H151.797V26.1094H151.641C150.938 27.5547 148.984 29.5078 145.312 29.5078C141.289 29.5078 138.086 27.125 138.086 22.9844ZM141.445 23.1406C141.445 25.3672 143.32 26.5 145.898 26.5C149.688 26.5 151.797 23.9609 151.797 21.3047V19.1562C150.801 19.2344 147.461 19.4883 146.445 19.5469C143.398 19.7422 141.445 20.8359 141.445 23.1406ZM177.188 7.78906L169.336 29H165.859L158.047 7.78906H161.719L167.5 24.625H167.734L173.516 7.78906H177.188ZM189.023 29.4297C182.891 29.4297 179.102 25.0938 179.102 18.5703C179.102 12.0469 182.93 7.51562 188.711 7.51562C193.164 7.51562 197.852 10.25 197.852 18.1016V19.5078H182.461C182.617 24 185.234 26.4609 189.023 26.4609C191.562 26.4609 193.164 25.3672 193.945 24.0391H197.539C196.523 27.2422 193.398 29.4297 189.023 29.4297ZM182.5 16.6562H194.453C194.453 13.1016 192.188 10.4844 188.711 10.4844C185.039 10.4844 182.695 13.375 182.5 16.6562ZM205.586 0.71875V29H202.227V0.71875H205.586Z" fill="black"/>
<path d="M98.0469 5.5625V0.71875H121.211V5.5625H112.539V29H106.719V5.5625H98.0469Z" fill="#5CCE59"/>
</svg>
